<?xml version="1.0" encoding="UTF-8" standalone="no"?>
<svg
   xmlns:dc="http://purl.org/dc/elements/1.1/"
   xmlns:cc="http://creativecommons.org/ns#"
   xmlns:rdf="http://www.w3.org/1999/02/22-rdf-syntax-ns#"
   xmlns:svg="http://www.w3.org/2000/svg"
   xmlns="http://www.w3.org/2000/svg"
   viewBox="0 0 4000 4000"
   height="4000"
   width="4000"
   xml:space="preserve"
   id="svg2"
   version="1.1"><metadata
     id="metadata8"><rdf:RDF><cc:Work
         rdf:about=""><dc:format>image/svg+xml</dc:format><dc:type
           rdf:resource="http://purl.org/dc/dcmitype/StillImage" /></cc:Work></rdf:RDF></metadata><defs
     id="defs6" /><g
     transform="matrix(1.3333333,0,0,-1.3333333,0,4000)"
     id="g10"><g
       transform="scale(0.1)"
       id="g12"><g
         transform="scale(1.84049)"
         id="g14"><path
           id="path16"
           style="fill:#ffffff;fill-opacity:1;fill-rule:nonzero;stroke:none"
           d="M 16300,0 H 0 V 16300 H 16300 V 0" /></g><g
         transform="scale(1.61869)"
         id="g18"><path
           id="path20"
           style="fill:#efeefe;fill-opacity:1;fill-rule:nonzero;stroke:none"
           d="m 12493.3,14826.7 c 1353.5,-137.6 2490.7,-1308.2 2971,-2453.3 835.7,-1992.6 -215.1,-4153.16 -1418,-5311.69 C 11603.8,4709.06 8004.45,5977.44 7811.83,6048.85 c -400.76,148.64 -3097.46,1196.71 -3623.65,3691.2 -47.65,225.87 -423.67,2129.85 630.19,3083.45 874.33,791.1 1749.24,38.1 3847.85,537 2171.98,516.3 2433.68,1607.8 3827.08,1466.2" /></g><g
         transform="scale(1.08994)"
         id="g22"><path
           id="path24"
           style="fill:#efeefe;fill-opacity:1;fill-rule:nonzero;stroke:none"
           d="m 4185.63,9076.29 c -425.86,254.79 -2388.3,1487.51 -2706.83,3712.31 -190.87,1333.1 191.28,3143 1026,3329.6 813.99,181.8 1867.24,-1222.9 2288.78,-2363.3 789.99,-2137.4 -326.39,-4191.42 -607.95,-4678.61" /></g><path
         id="path26"
         style="fill:none;stroke:#d3d5fc;stroke-width:143.69599915;stroke-linecap:butt;stroke-linejoin:miter;stroke-miterlimit:10;stroke-dasharray:none;stroke-opacity:1"
         d="m 3025.97,15780.4 c 0,0 548.71,-3038.2 1536.11,-5887.8 370.35,-1068.8 746.8,-2123.5 1072.68,-3024.5" /><path
         id="path28"
         style="fill:none;stroke:#d3d5fc;stroke-width:143.69599915;stroke-linecap:butt;stroke-linejoin:miter;stroke-miterlimit:10;stroke-dasharray:none;stroke-opacity:1"
         d="m 3779.42,12493 c 163.54,583.1 327.08,1166.2 490.63,1749.3" /><path
         id="path30"
         style="fill:none;stroke:#d3d5fc;stroke-width:143.69599915;stroke-linecap:butt;stroke-linejoin:miter;stroke-miterlimit:10;stroke-dasharray:none;stroke-opacity:1"
         d="m 3359.15,14178.3 c -75.3,175.7 -233.63,299.3 -385.67,415.1 -163.99,125 -327.97,249.9 -491.95,374.8" /><g
         transform="scale(1.81324)"
         id="g32"><path
           id="path34"
           style="fill:#efeefe;fill-opacity:1;fill-rule:nonzero;stroke:none"
           d="m 13829.1,4231.93 c 0,0 1799.7,258.32 1025.9,1014.26 0,0 1445,1273.47 328.9,1123.74 0,0 192.3,2032.6 -1170.9,403.42 0,0 -554.3,480.79 -294.9,-848.21 0,0 -1199.1,411.25 111,-1693.21" /></g><g
         transform="scale(1.60973)"
         id="g36"><path
           id="path38"
           style="fill:none;stroke:#d3d5fc;stroke-width:66.50060272;stroke-linecap:butt;stroke-linejoin:miter;stroke-miterlimit:10;stroke-dasharray:none;stroke-opacity:1"
           d="m 15404.3,4309.29 c 607.2,1432.42 895.7,3015.54 895.7,3015.54" /></g><g
         transform="scale(1.63088)"
         id="g40"><path
           id="path42"
           style="fill:none;stroke:#d3d5fc;stroke-width:65.63800049;stroke-linecap:butt;stroke-linejoin:miter;stroke-miterlimit:10;stroke-dasharray:none;stroke-opacity:1"
           d="m 15745,5795.26 c 185,127.54 370,255.14 555,382.68" /></g><g
         transform="scale(1.59429)"
         id="g44"><path
           id="path46"
           style="fill:none;stroke:#d3d5fc;stroke-width:67.1446991;stroke-linecap:butt;stroke-linejoin:miter;stroke-miterlimit:10;stroke-dasharray:none;stroke-opacity:1"
           d="m 16300,6653.63 c -88,178.89 -176,357.71 -264,536.6" /></g><g
         transform="scale(1.71136)"
         id="g48"><path
           id="path50"
           style="fill:none;stroke:#bbb4f8;stroke-width:144.04100037;stroke-linecap:round;stroke-linejoin:miter;stroke-miterlimit:10;stroke-dasharray:none;stroke-opacity:1"
           d="M 15455.9,4022.19 H 16300" /></g><g
         transform="scale(1.5705)"
         id="g52"><path
           id="path54"
           style="fill:none;stroke:#bbb4f8;stroke-width:156.96000671;stroke-linecap:round;stroke-linejoin:miter;stroke-miterlimit:10;stroke-dasharray:none;stroke-opacity:1"
           d="M 2256.24,4382.95 H 16300" /></g><g
         transform="scale(1.26681)"
         id="g56"><path
           id="path58"
           style="fill:#fb9c98;fill-opacity:1;fill-rule:nonzero;stroke:none"
           d="m 16251.3,13794.5 c -53.2,-93.7 -156.4,-125.3 -262.9,-141.1 -467.4,-69.6 -1777.7,-192.3 -1777.7,-192.3 l -1707.5,599.1 13,186.8 1780.2,-310.1 1699.1,317.6 c 106,-2.7 201.3,-65 246.3,-160.9 l 19.5,-41.4 c 38.7,-82.4 35,-178.5 -10,-257.7 v 0" /></g><g
         transform="scale(1.23082)"
         id="g60"><path
           id="path62"
           style="fill:#f95f6a;fill-opacity:1;fill-rule:nonzero;stroke:none"
           d="m 15564.9,14540 1.6,-367.8 733.5,160.7 -284.4,280.1 -450.7,-73" /></g><g
         transform="scale(1.11775)"
         id="g64"><path
           id="path66"
           style="fill:#fb9c98;fill-opacity:1;fill-rule:nonzero;stroke:none"
           d="m 14217.5,15918.7 -136.8,44.3 c 0,0 -64.2,-19.6 -147.5,1.8 -15.9,4.1 -137.7,35 -205.8,149.6 -30.7,51.7 -59,134.5 -31.1,159 30.1,26.6 128.2,-13.9 125.8,-13.4 v 0 l 447.1,-135.3 -51.7,-206" /></g><g
         transform="scale(1.12215)"
         id="g68"><path
           id="path70"
           style="fill:#fb9c98;fill-opacity:1;fill-rule:nonzero;stroke:none"
           d="m 14072.1,16103 c -86.7,166.3 -125,197 -143.6,191.1 -25.8,-8 -43,-94.5 4.3,-152.5 33.1,-40.4 89,-56.1 139.3,-38.6" /></g><g
         transform="scale(1.10269)"
         id="g72"><path
           id="path74"
           style="fill:#f6a19e;fill-opacity:1;fill-rule:nonzero;stroke:none"
           d="m 16207,6761.03 c 0,0 80.3,858.18 93,1769.95 -247.3,-8.8 -500,14.6 -746.8,2.36 93.1,-492.8 276.5,-1147.84 413.2,-1798.7 l 240.6,26.39" /></g><g
         transform="scale(1.29094)"
         id="g76"><path
           id="path78"
           style="fill:#8754af;fill-opacity:1;fill-rule:nonzero;stroke:none"
           d="m 13902.1,9137.23 c 0,0 1919.6,304.66 2098.4,487.86 299.5,306.83 294.7,1734.31 294.7,1734.31 l -750.6,-164.4 v 0 c 0,0 -1978,-605.5 -2560.6,-1392.21 0,0 -202.4,-72.74 316.2,-2818.34 210.8,10.46 426.6,-9.53 637.9,-2.09 11.9,854.03 12.8,1827.35 -36,2154.87" /></g><g
         transform="scale(1.49479)"
         id="g80"><path
           id="path82"
           style="fill:#f6a19e;fill-opacity:1;fill-rule:nonzero;stroke:none"
           d="m 16124.6,5093.24 175.4,56.8 -842.8,1382 c -183.2,-81.28 -515,105.17 -699.9,30.17 l 1367.3,-1468.97" /></g><g
         transform="scale(1.47023)"
         id="g84"><path
           id="path86"
           style="fill:#8754af;fill-opacity:1;fill-rule:nonzero;stroke:none"
           d="m 13501.5,10352.6 c 0,0 984.4,70.4 1221.4,-999.66 l 181.2,-1598.05 1395.9,-1891.87 -414.2,-197.25 -1660,1660.28 -1186.5,1879.02 42.2,624.66 420,522.87" /></g><g
         transform="scale(1.29418)"
         id="g88"><path
           id="path90"
           style="fill:#f95f6a;fill-opacity:1;fill-rule:nonzero;stroke:none"
           d="m 15686.9,14134.7 c 0,0 511,-124.6 435.7,-1277.5 -83,-1271.8 177.4,-1472.4 177.4,-1472.4 0,0 -532.1,-268.6 -1439,-217.9 0,0 -93.4,1422 -177.7,2067.2 0,0 207.5,345.1 637.6,873.8 l 366,26.8" /></g><g
         transform="scale(1.25058)"
         id="g92"><path
           id="path94"
           style="fill:#fb9c98;fill-opacity:1;fill-rule:nonzero;stroke:none"
           d="m 15830.5,14884.2 c 24.8,-31.1 64.6,-91 65.6,-169.2 0.8,-63 -24.7,-97.1 -48.6,-124.4 -145,-166 -396.7,-500.2 -416.6,-545.1 308.6,5.6 462.6,86.9 521.9,172.4 53.7,77.1 68.9,180.1 181.4,278.3 61.2,53.6 123.5,83.4 165.8,100.2 -49.1,59.1 -75.7,153.6 -98.7,255.9 -12.5,56.2 -20.3,126.9 -35.2,171.8 -86,-30.8 -249.4,-109 -335.6,-139.9" /></g><g
         transform="scale(1.23589)"
         id="g96"><path
           id="path98"
           style="fill:#d37171;fill-opacity:1;fill-rule:nonzero;stroke:none"
           d="m 16300,15099.3 c -52.2,-76.9 -134.6,-138.3 -220.2,-162.1 -12,56 -41.2,99.1 -61,123.9 87.1,31.4 174.2,62.6 261.2,93.9 5.9,-18 12.6,-36.6 20,-55.7" /></g><g
         transform="scale(1.25088)"
         id="g100"><path
           id="path102"
           style="fill:#fb9c98;fill-opacity:1;fill-rule:nonzero;stroke:none"
           d="m 15941.4,15516.3 c -17.3,-2.4 -149.6,-23.1 -237.9,-132.7 -14.3,-17.7 -56.3,-71.8 -75.4,-154.4 -24.5,-106.2 -17.5,-286.3 98.3,-367.6 141.8,-99.5 383.9,-6.9 485.4,154.6 88.2,140.3 86.6,358.6 -34.4,454.2 -85.2,67.3 -200.4,50.9 -236,45.9" /></g><g
         transform="scale(1.3452)"
         id="g104"><path
           id="path106"
           style="fill:none;stroke:#2e3192;stroke-width:44.12360001;stroke-linecap:butt;stroke-linejoin:miter;stroke-miterlimit:10;stroke-dasharray:none;stroke-opacity:1"
           d="m 16288.8,8455.42 c 11.2,-122.14 7.6,-177.07 7.6,-177.07" /></g><g
         transform="scale(1.50791)"
         id="g108"><path
           id="path110"
           style="fill:#f6a19e;fill-opacity:1;fill-rule:nonzero;stroke:none"
           d="m 16104.2,5159.18 155.8,-114.59 40,-107.31 -289.1,-245.9 h -396.8 v 79.32 c 0,0 106.4,86.67 200.3,67.64 93.9,-18.97 163.6,218.05 163.6,218.05 l 126.2,102.79" /></g><g
         transform="scale(1.10058)"
         id="g112"><path
           id="path114"
           style="fill:#f6a19e;fill-opacity:1;fill-rule:nonzero;stroke:none"
           d="m 16012.2,6784.26 223,-1.27 64.8,-256.95 -51.2,-148.2 -520,-8 -415,-2.45 -4.8,126.39 491.1,132.29 212.1,158.19" /></g><g
         transform="scale(1.21167)"
         id="g116"><path
           id="path118"
           style="fill:#f95f6a;fill-opacity:1;fill-rule:nonzero;stroke:none"
           d="m 15926.5,14496.6 -228.4,-220.3 c 0,0 -135.9,-358.5 142.5,-538.2 278.6,-179.7 459.4,176.7 459.4,176.7 l -373.5,581.8" /></g><g
         transform="scale(1.20404)"
         id="g120"><path
           id="path122"
           style="fill:none;stroke:#ce3a5e;stroke-width:45.08229828;stroke-linecap:butt;stroke-linejoin:miter;stroke-miterlimit:10;stroke-dasharray:none;stroke-opacity:1"
           d="m 15871.2,13913.2 c 40.9,-29.7 163.5,-110.1 319.7,-90.3 42.7,5.4 79.2,17.1 109.1,30.1" /></g><g
         transform="scale(1.22792)"
         id="g124"><path
           id="path126"
           style="fill:none;stroke:#2e3192;stroke-width:48.33769989;stroke-linecap:butt;stroke-linejoin:miter;stroke-miterlimit:10;stroke-dasharray:none;stroke-opacity:1"
           d="m 15945.5,10874.7 c 75.9,-250.3 188.3,-554.9 354.5,-905.65" /></g><g
         transform="scale(1.10098)"
         id="g128"><path
           id="path130"
           style="fill:#bbb4f8;fill-opacity:1;fill-rule:nonzero;stroke:none"
           d="M 15270.5,6365.05 H 16300 v 85.38 h -1029.5 v -85.38" /></g><g
         transform="scale(1.10294)"
         id="g132"><path
           id="path134"
           style="fill:#2e3192;fill-opacity:1;fill-rule:nonzero;stroke:none"
           d="m 15865.6,6708.44 c 0,0 292.5,-151.96 370.7,-36.17 0,0 63.7,-116.24 34.8,-233.29 h -1009.2 v 87.04 l 603.7,182.42" /></g><g
         transform="scale(1.51233)"
         id="g136"><path
           id="path138"
           style="fill:#bbb4f8;fill-opacity:1;fill-rule:nonzero;stroke:none"
           d="m 15988.8,4633.77 h -460.6 v 50.65 h 442.2 l 297,249.88 32.6,-38.81 -311.2,-261.72" /></g><g
         transform="scale(1.50889)"
         id="g140"><path
           id="path142"
           style="fill:#2e3192;fill-opacity:1;fill-rule:nonzero;stroke:none"
           d="m 15916.8,4985.65 c 0,0 282.6,19.02 289.8,103.99 0,0 67.8,-39.37 93.4,-147.93 l -293.2,-246.6 h -431.3 v 87.35 c 31.3,17.16 75.8,37.24 131.7,49.97 48.8,11.13 91.8,13.39 124.7,12.72 28.3,46.86 56.6,93.65 84.9,140.5" /></g><g
         transform="scale(1.26302)"
         id="g144"><path
           id="path146"
           style="fill:#191245;fill-opacity:1;fill-rule:nonzero;stroke:none"
           d="m 15479.1,15618.5 c -69.3,-91.8 45.5,-337.3 224.6,-452.9 203.5,-131.4 506.7,-105.6 553.7,4.7 42.6,99.8 -129.1,256.8 -158.9,284 -201.5,184.3 -539,270.8 -619.4,164.2" /></g><g
         transform="scale(1.25256)"
         id="g148"><path
           id="path150"
           style="fill:#fb9c98;fill-opacity:1;fill-rule:nonzero;stroke:none"
           d="m 16295.5,15184 c 4.5,42 -25.9,79.7 -67.9,84.3 -42.1,4.4 -79.8,-26 -84.2,-68 -4.6,-42 25.8,-79.7 67.8,-84.2 42.1,-4.5 79.8,25.9 84.3,67.9" /></g><g
         transform="scale(1.10388)"
         id="g152"><path
           id="path154"
           style="fill:#8754af;fill-opacity:1;fill-rule:nonzero;stroke:none"
           d="m 15554.1,8168.03 328.5,-1233.11 h 351.5 l 65.9,1230.66 -447.9,97.3 -298,-94.85" /></g><g
         transform="scale(1.2356)"
         id="g156"><path
           id="path158"
           style="fill:#bbb4f8;fill-opacity:1;fill-rule:nonzero;stroke:none"
           d="m 7802.48,16300 c -329.97,-565.7 -513.54,-1226.2 -499.76,-1928.8 39.95,-2037.5 1724,-3656.8 3761.48,-3616.8 l -72.6,3702.8 -3189.12,1842.8" /></g><g
         transform="scale(1.09591)"
         id="g160"><path
           id="path162"
           style="fill:#fdc854;fill-opacity:1;fill-rule:nonzero;stroke:none"
           d="m 16002.1,14214.4 -3609.5,2085.6 81.9,-4174.8 c 1514.4,29.7 2823.9,865.1 3527.6,2089.2" /></g><g
         transform="scale(1.40182)"
         id="g164"><path
           id="path166"
           style="fill:#4463cd;fill-opacity:1;fill-rule:nonzero;stroke:none"
           d="m 13033,11394.7 c 284.3,494.5 442.1,1070.3 430.1,1682.1 -35.2,1795.9 -1519.6,3223.2 -3315.4,3188 l 63.5,-3239.6 2821.8,-1630.5" /></g><g
         transform="scale(1.22019)"
         id="g168"><path
           id="path170"
           style="fill:none;stroke:#ffffff;stroke-width:78.11360168;stroke-linecap:round;stroke-linejoin:round;stroke-miterlimit:10;stroke-dasharray:none;stroke-opacity:1"
           d="m 14173.5,15468.8 h -1221.1 l -88.8,831.2 h 1398.8 z" /></g><g
         transform="scale(1.22019)"
         id="g172"><path
           id="path174"
           style="fill:none;stroke:#ffffff;stroke-width:78.11360168;stroke-linecap:round;stroke-linejoin:miter;stroke-miterlimit:10;stroke-dasharray:none;stroke-opacity:1"
           d="m 13273.8,16300 88.4,-831.2" /></g><g
         transform="scale(1.22019)"
         id="g176"><path
           id="path178"
           style="fill:none;stroke:#ffffff;stroke-width:78.11360168;stroke-linecap:round;stroke-linejoin:miter;stroke-miterlimit:10;stroke-dasharray:none;stroke-opacity:1"
           d="m 13852.1,16300 -88.3,-831.2" /></g><g
         transform="scale(1.25415)"
         id="g180"><path
           id="path182"
           style="fill:none;stroke:#ffffff;stroke-width:75.99839783;stroke-linecap:round;stroke-linejoin:round;stroke-miterlimit:10;stroke-dasharray:none;stroke-opacity:1"
           d="m 13677.1,15858.6 v 0 c 0,243.8 -197.5,441.4 -441.4,441.4 h -80 c -243.8,0 -441.4,-197.6 -441.4,-441.4 v 0" /></g><g
         transform="scale(1.18908)"
         id="g184"><path
           id="path186"
           style="fill:none;stroke:#ffffff;stroke-width:80.15740204;stroke-linecap:round;stroke-linejoin:round;stroke-miterlimit:10;stroke-dasharray:none;stroke-opacity:1"
           d="m 13245.7,16300 h 1344.2" /></g><path
         id="path188"
         style="fill:none;stroke:#ffffff;stroke-width:121.14499664;stroke-linecap:round;stroke-linejoin:miter;stroke-miterlimit:10;stroke-dasharray:none;stroke-opacity:1"
         d="m 15752.9,15837.8 c -41.3,41.3 -108.3,41.3 -149.6,0 l -267.2,-267.3 -684,147.7 c -60.2,3.3 -87.7,-73.9 -38.9,-109.3 l 440.7,-320.6 -320.5,-320.4 c -5.3,-5.4 -10,-11.2 -13.9,-17.3 l -165.6,9.2 c -20.1,1.1 -29.2,-24.6 -13,-36.4 l 176.9,-128.6 128.6,-176.9 c 11.8,-16.2 37.5,-7.1 36.4,12.9 l -9.9,178.7 c 3.5,2.7 6.9,5.6 10.1,8.8 l 321.7,321.7 327.2,-449.8 c 35.5,-48.8 112.6,-21.3 109.3,38.9 l -150.5,696.9 262.2,262.2 c 41.3,41.3 41.3,108.3 0,149.6 z" /><g
         transform="scale(1.018)"
         id="g190"><path
           id="path192"
           style="fill:none;stroke:#ffffff;stroke-width:93.62819672;stroke-linecap:round;stroke-linejoin:round;stroke-miterlimit:10;stroke-dasharray:none;stroke-opacity:1"
           d="m 10524.4,16300 v -572.1 h 1535.4 v 572.1" /></g><g
         transform="scale(1.05027)"
         id="g194"><path
           id="path196"
           style="fill:none;stroke:#ffffff;stroke-width:90.75140381;stroke-linecap:round;stroke-linejoin:round;stroke-miterlimit:10;stroke-dasharray:none;stroke-opacity:1"
           d="m 12048.9,15922.3 -1103.7,377.7 -1103.82,-377.7 1103.82,-377.7 z" /></g><g
         transform="scale(1.37452)"
         id="g198"><path
           id="path200"
           style="fill:#d3d5fc;fill-opacity:1;fill-rule:nonzero;stroke:none"
           d="m 9259.38,13355.1 621.31,-359.1 -64.82,3304 c -866.48,-17 -1648.79,-364.8 -2228.85,-920.6 v 0 c 0,0 -0.08,0 -0.08,0 -13.45,-12.9 -26.77,-25.9 -40.01,-39 -1.38,-1.4 -2.69,-2.8 -4.07,-4.1 -11.93,-11.9 -23.79,-23.9 -35.58,-35.9 -1.89,-2 -3.78,-3.9 -5.75,-5.9 -11.2,-11.6 -22.41,-23.2 -33.46,-35 -2.11,-2.2 -4.15,-4.4 -6.26,-6.6 -11.06,-11.8 -21.97,-23.7 -32.88,-35.6 -1.89,-2 -3.71,-4.1 -5.61,-6.1 -11.35,-12.6 -22.62,-25.2 -33.83,-37.9 -1.23,-1.4 -2.47,-2.8 -3.7,-4.3 -37.84,-43.1 -74.58,-87.2 -110.08,-132.2 -0.55,-0.7 -1.07,-1.4 -1.6,-2.1 -10.85,-13.7 -21.59,-27.6 -32.22,-41.5 -2.67,-3.6 -5.31,-7.1 -7.98,-10.6 -8.44,-11.2 -16.82,-22.4 -25.12,-33.6 -3.48,-4.8 -6.93,-9.5 -10.39,-14.3 -7.39,-10.1 -14.74,-20.3 -22.01,-30.5 -3.84,-5.4 -7.65,-10.8 -11.45,-16.3 -6.84,-9.7 -13.62,-19.4 -20.35,-29.2 -3.94,-5.8 -7.87,-11.5 -11.77,-17.3 -6.52,-9.6 -12.99,-19.3 -19.41,-29 -3.92,-5.9 -7.82,-11.8 -11.7,-17.7 -6.41,-9.9 -12.74,-19.8 -19.06,-29.7 -3.69,-5.7 -7.42,-11.5 -11.09,-17.3 -6.79,-10.8 -13.48,-21.7 -20.16,-32.6 -3.01,-4.9 -6.07,-9.8 -9.07,-14.7 -9.6,-15.9 -19.1,-31.8 -28.44,-47.8 v 0 0 l 2245.49,-1297.5" /></g><g
         transform="scale(1.25058)"
         id="g202"><path
           id="path204"
           style="fill:none;stroke:#ffffff;stroke-width:76.21559906;stroke-linecap:round;stroke-linejoin:miter;stroke-miterlimit:10;stroke-dasharray:none;stroke-opacity:1"
           d="m 10301.8,15983.3 h 234.5 v 286.1 l -396.7,30.6" /></g><g
         transform="scale(1.22628)"
         id="g206"><path
           id="path208"
           style="fill:none;stroke:#ffffff;stroke-width:77.7256012;stroke-linecap:round;stroke-linejoin:miter;stroke-miterlimit:10;stroke-dasharray:none;stroke-opacity:1"
           d="m 9588.17,16300 h 488.43" /></g><g
         transform="scale(1.25058)"
         id="g210"><path
           id="path212"
           style="fill:none;stroke:#ffffff;stroke-width:76.21559906;stroke-linecap:round;stroke-linejoin:miter;stroke-miterlimit:10;stroke-dasharray:none;stroke-opacity:1"
           d="m 9107.15,16300 -396.69,-30.6 v -286.1 h 276.51" /></g><g
         transform="scale(1.27954)"
         id="g214"><path
           id="path216"
           style="fill:none;stroke:#ffffff;stroke-width:74.49069977;stroke-linecap:round;stroke-linejoin:miter;stroke-miterlimit:10;stroke-dasharray:none;stroke-opacity:1"
           d="m 9910.08,15931.1 -29.94,199.8 c -14.61,97.2 -98.08,169.1 -196.32,169.1 h -556.53 c -98.24,0 -181.71,-71.9 -196.32,-169.1 l -29.93,-199.8 z" /></g><g
         transform="scale(1.24176)"
         id="g218"><path
           id="path220"
           style="fill:none;stroke:#ffffff;stroke-width:76.75710297;stroke-linecap:round;stroke-linejoin:miter;stroke-miterlimit:10;stroke-dasharray:none;stroke-opacity:1"
           d="m 9457.02,16096.9 c 0,112.2 -90.92,203.1 -203.1,203.1 -112.18,0 -203.1,-90.9 -203.1,-203.1 0,-112.2 90.92,-203.1 203.1,-203.1 112.18,0 203.1,90.9 203.1,203.1 z" /></g><g
         transform="scale(1.24176)"
         id="g222"><path
           id="path224"
           style="fill:none;stroke:#ffffff;stroke-width:76.75710297;stroke-linecap:round;stroke-linejoin:miter;stroke-miterlimit:10;stroke-dasharray:none;stroke-opacity:1"
           d="m 10368.3,16096.9 c 0,112.2 -90.9,203.1 -203.1,203.1 -112.2,0 -203.09,-90.9 -203.09,-203.1 0,-112.2 90.89,-203.1 203.09,-203.1 112.2,0 203.1,90.9 203.1,203.1 z" /></g><g
         transform="scale(1.27954)"
         id="g226"><path
           id="path228"
           style="fill:none;stroke:#ffffff;stroke-width:74.49069977;stroke-linecap:round;stroke-linejoin:miter;stroke-miterlimit:10;stroke-dasharray:none;stroke-opacity:1"
           d="m 9405.52,16300 v -357.5" /></g><g
         transform="scale(1.25058)"
         id="g230"><path
           id="path232"
           style="fill:none;stroke:#ffffff;stroke-width:76.21559906;stroke-linecap:round;stroke-linejoin:miter;stroke-miterlimit:10;stroke-dasharray:none;stroke-opacity:1"
           d="m 9623.31,16300 v -306.7" /></g><g
         transform="scale(1.24014)"
         id="g234"><path
           id="path236"
           style="fill:none;stroke:#ffffff;stroke-width:76.8572998;stroke-linecap:round;stroke-linejoin:miter;stroke-miterlimit:10;stroke-dasharray:none;stroke-opacity:1"
           d="m 8783.79,16300 h 117.33" /></g><g
         transform="scale(1.22628)"
         id="g238"><path
           id="path240"
           style="fill:none;stroke:#ffffff;stroke-width:77.7256012;stroke-linecap:round;stroke-linejoin:miter;stroke-miterlimit:10;stroke-dasharray:none;stroke-opacity:1"
           d="m 9370.68,16300 h 3.51" /></g><g
         transform="scale(1.22628)"
         id="g242"><path
           id="path244"
           style="fill:none;stroke:#ffffff;stroke-width:77.7256012;stroke-linecap:round;stroke-linejoin:miter;stroke-miterlimit:10;stroke-dasharray:none;stroke-opacity:1"
           d="m 10291.8,16300 h 3.4" /></g><g
         transform="scale(1.27076)"
         id="g246"><path
           id="path248"
           style="fill:#fb9c98;fill-opacity:1;fill-rule:nonzero;stroke:none"
           d="m 16142.3,14221.2 c 34.9,-18.1 70.9,-56.4 91.4,-99.9 66.3,-140.9 -46.5,-308.6 -46.5,-308.6 l -1353.4,-1364.3 c -57.1,-57.6 -145.1,-71.5 -217.2,-34.2 l -1615.6,834.9 104.7,194.3 1583.6,-498.3 c 196,290 384.1,506.2 521.3,651.2 173.8,183.8 703.3,743.6 931.7,624.9" /></g><g
         transform="scale(1.07298)"
         id="g250"><path
           id="path252"
           style="fill:#fb9c98;fill-opacity:1;fill-rule:nonzero;stroke:none"
           d="m 15467.5,16030.8 c -36.8,219.8 -68.7,268.5 -91.9,268.8 -32,0.4 -83.4,-90.9 -51.2,-173.8 22.5,-58 79.8,-96.2 143.1,-95" /></g><g
         transform="scale(1.0734)"
         id="g254"><path
           id="path256"
           style="fill:#fb9c98;fill-opacity:1;fill-rule:nonzero;stroke:none"
           d="m 15405.6,15680.7 -547.5,217.9 15.3,72.5 153,-6.1 -231.7,142.8 32.8,75.7 229.2,-105.2 -193.1,143.5 40,78.2 555.2,-258 56.5,-126.9 -109.7,-234.4" /></g><g
         transform="scale(1.26939)"
         id="g258"><path
           id="path260"
           style="fill:#f95f6a;fill-opacity:1;fill-rule:nonzero;stroke:none"
           d="m 15474,13904.9 451.8,-538.3 351.2,430.7 23,275.1 c -3.2,3.5 -92.7,163.8 -107.1,164.2 -3.8,0.1 -171.5,123.5 -174,126.2 -190.1,-116.4 -384,-303.4 -544.9,-457.9" /></g><g
         transform="scale(1.44234)"
         id="g262"><path
           id="path264"
           style="fill:#191245;fill-opacity:1;fill-rule:nonzero;stroke:none"
           d="m 16110.8,12201.3 c 126.1,231.3 189.2,580.7 16.6,755.5 -165.8,168.1 -405.8,29.4 -564.1,198.7 -157.9,168.9 30.2,391 -74.8,651.7 -159.8,397.1 -900.2,670.6 -1254,385 -161.9,-130.7 -263.5,-395.3 -193,-599.7 82.8,-240.1 337.9,-206.7 470.7,-484.2 122.2,-255.6 -39,-399 90.9,-574.3 161.2,-217.3 466.9,-74.2 634.2,-291.4 162.4,-210.7 -29.8,-495.3 104.2,-566.4 152.9,-81.2 580.4,178.7 769.3,525.1" /></g><path
         id="path266"
         style="fill:#bbb4f8;fill-opacity:1;fill-rule:nonzero;stroke:none"
         d="M 10817.1,6994.7 H 6073.86 c -280.94,0 -508.69,227.8 -508.69,508.7 v 7106.4 c 0,280.9 227.75,508.7 508.69,508.7 h 4743.24 c 280.9,0 508.7,-227.8 508.7,-508.7 V 7503.4 c 0,-280.9 -227.8,-508.7 -508.7,-508.7" /><path
         id="path268"
         style="fill:#8754af;fill-opacity:1;fill-rule:nonzero;stroke:none"
         d="M 10817.1,15118.5 H 6073.86 c -280.94,0 -508.68,-227.8 -508.68,-508.7 v -1924.3 h 5760.62 v 1924.3 c 0,280.9 -227.8,508.7 -508.7,508.7" /><path
         id="path270"
         style="fill:#efeefe;fill-opacity:1;fill-rule:nonzero;stroke:none"
         d="M 10654.1,13388.6 H 6236.85 v 1156.1 h 4417.25 v -1156.1" /><path
         id="path272"
         style="fill:#d3d5fc;fill-opacity:1;fill-rule:nonzero;stroke:none"
         d="m 6449.8,13388.6 h 1634.94 l 1156.08,1156.1 H 7605.88 L 6449.8,13388.6" /><path
         id="path274"
         style="fill:#8754af;fill-opacity:1;fill-rule:nonzero;stroke:none"
         d="m 6811.36,11056.6 h -675.01 c -72.99,0 -132.15,59.2 -132.15,132.1 v 478.1 c 0,73 59.16,132.2 132.15,132.2 h 675.01 c 72.99,0 132.15,-59.2 132.15,-132.2 v -478.1 c 0,-72.9 -59.16,-132.1 -132.15,-132.1" /><path
         id="path276"
         style="fill:#d3d5fc;fill-opacity:1;fill-rule:nonzero;stroke:none"
         d="m 6811.36,12134 h -675.01 c -72.99,0 -132.15,59.2 -132.15,132.2 v 0 c 0,73 59.16,132.1 132.15,132.1 h 675.01 c 72.99,0 132.15,-59.1 132.15,-132.1 v 0 c 0,-73 -59.16,-132.2 -132.15,-132.2" /><path
         id="path278"
         style="fill:#d3d5fc;fill-opacity:1;fill-rule:nonzero;stroke:none"
         d="m 8125.78,12134 h -675.01 c -72.99,0 -132.16,59.2 -132.16,132.2 v 0 c 0,73 59.17,132.1 132.16,132.1 h 675.01 c 72.98,0 132.15,-59.1 132.15,-132.1 v 0 c 0,-73 -59.17,-132.2 -132.15,-132.2" /><path
         id="path280"
         style="fill:#d3d5fc;fill-opacity:1;fill-rule:nonzero;stroke:none"
         d="m 9440.19,12134 h -675.01 c -72.98,0 -132.15,59.2 -132.15,132.2 v 0 c 0,73 59.17,132.1 132.15,132.1 h 675.01 c 72.99,0 132.15,-59.1 132.15,-132.1 v 0 c 0,-73 -59.16,-132.2 -132.15,-132.2" /><path
         id="path282"
         style="fill:#d3d5fc;fill-opacity:1;fill-rule:nonzero;stroke:none"
         d="m 10754.6,12134 h -675 c -73,0 -132.15,59.2 -132.15,132.2 v 0 c 0,73 59.15,132.1 132.15,132.1 h 675 c 73,0 132.2,-59.1 132.2,-132.1 v 0 c 0,-73 -59.2,-132.2 -132.2,-132.2" /><path
         id="path284"
         style="fill:#8754af;fill-opacity:1;fill-rule:nonzero;stroke:none"
         d="m 6811.36,9981.7 h -675.01 c -72.99,0 -132.15,59.1 -132.15,132.1 v 478.1 c 0,73 59.16,132.1 132.15,132.1 h 675.01 c 72.99,0 132.15,-59.1 132.15,-132.1 v -478.1 c 0,-73 -59.16,-132.1 -132.15,-132.1" /><path
         id="path286"
         style="fill:#8754af;fill-opacity:1;fill-rule:nonzero;stroke:none"
         d="m 6811.36,8906.7 h -675.01 c -72.99,0 -132.15,59.2 -132.15,132.2 v 478 c 0,73 59.16,132.2 132.15,132.2 h 675.01 c 72.99,0 132.15,-59.2 132.15,-132.2 v -478 c 0,-73 -59.16,-132.2 -132.15,-132.2" /><path
         id="path288"
         style="fill:#8754af;fill-opacity:1;fill-rule:nonzero;stroke:none"
         d="m 6811.36,7831.8 h -675.01 c -72.99,0 -132.15,59.1 -132.15,132.1 V 8442 c 0,73 59.16,132.2 132.15,132.2 h 675.01 c 72.99,0 132.15,-59.2 132.15,-132.2 v -478.1 c 0,-73 -59.16,-132.1 -132.15,-132.1" /><path
         id="path290"
         style="fill:#8754af;fill-opacity:1;fill-rule:nonzero;stroke:none"
         d="m 8125.78,11056.6 h -675.01 c -72.99,0 -132.16,59.2 -132.16,132.1 v 478.1 c 0,73 59.17,132.2 132.16,132.2 h 675.01 c 72.98,0 132.15,-59.2 132.15,-132.2 v -478.1 c 0,-72.9 -59.17,-132.1 -132.15,-132.1" /><path
         id="path292"
         style="fill:#8754af;fill-opacity:1;fill-rule:nonzero;stroke:none"
         d="m 8125.78,9981.7 h -675.01 c -72.99,0 -132.16,59.1 -132.16,132.1 v 478.1 c 0,73 59.17,132.1 132.16,132.1 h 675.01 c 72.98,0 132.15,-59.1 132.15,-132.1 v -478.1 c 0,-73 -59.17,-132.1 -132.15,-132.1" /><path
         id="path294"
         style="fill:#8754af;fill-opacity:1;fill-rule:nonzero;stroke:none"
         d="m 8125.78,8906.7 h -675.01 c -72.99,0 -132.16,59.2 -132.16,132.2 v 478 c 0,73 59.17,132.2 132.16,132.2 h 675.01 c 72.98,0 132.15,-59.2 132.15,-132.2 v -478 c 0,-73 -59.17,-132.2 -132.15,-132.2" /><path
         id="path296"
         style="fill:#8754af;fill-opacity:1;fill-rule:nonzero;stroke:none"
         d="m 8125.78,7831.8 h -675.01 c -72.99,0 -132.16,59.1 -132.16,132.1 V 8442 c 0,73 59.17,132.2 132.16,132.2 h 675.01 c 72.98,0 132.15,-59.2 132.15,-132.2 v -478.1 c 0,-73 -59.17,-132.1 -132.15,-132.1" /><path
         id="path298"
         style="fill:#8754af;fill-opacity:1;fill-rule:nonzero;stroke:none"
         d="m 9440.19,11056.6 h -675.01 c -72.98,0 -132.15,59.2 -132.15,132.1 v 478.1 c 0,73 59.17,132.2 132.15,132.2 h 675.01 c 72.99,0 132.15,-59.2 132.15,-132.2 v -478.1 c 0,-72.9 -59.16,-132.1 -132.15,-132.1" /><path
         id="path300"
         style="fill:#8754af;fill-opacity:1;fill-rule:nonzero;stroke:none"
         d="m 9440.19,9981.7 h -675.01 c -72.98,0 -132.15,59.1 -132.15,132.1 v 478.1 c 0,73 59.17,132.1 132.15,132.1 h 675.01 c 72.99,0 132.15,-59.1 132.15,-132.1 v -478.1 c 0,-73 -59.16,-132.1 -132.15,-132.1" /><path
         id="path302"
         style="fill:#8754af;fill-opacity:1;fill-rule:nonzero;stroke:none"
         d="m 9440.19,8906.7 h -675.01 c -72.98,0 -132.15,59.2 -132.15,132.2 v 478 c 0,73 59.17,132.2 132.15,132.2 h 675.01 c 72.99,0 132.15,-59.2 132.15,-132.2 v -478 c 0,-73 -59.16,-132.2 -132.15,-132.2" /><path
         id="path304"
         style="fill:#8754af;fill-opacity:1;fill-rule:nonzero;stroke:none"
         d="m 9440.19,7831.8 h -675.01 c -72.98,0 -132.15,59.1 -132.15,132.1 V 8442 c 0,73 59.17,132.2 132.15,132.2 h 675.01 c 72.99,0 132.15,-59.2 132.15,-132.2 v -478.1 c 0,-73 -59.16,-132.1 -132.15,-132.1" /><path
         id="path306"
         style="fill:#653087;fill-opacity:1;fill-rule:nonzero;stroke:none"
         d="m 10754.6,11056.6 h -675 c -73,0 -132.15,59.2 -132.15,132.1 v 478.1 c 0,73 59.15,132.2 132.15,132.2 h 675 c 73,0 132.2,-59.2 132.2,-132.2 v -478.1 c 0,-72.9 -59.2,-132.1 -132.2,-132.1" /><path
         id="path308"
         style="fill:#653087;fill-opacity:1;fill-rule:nonzero;stroke:none"
         d="m 10754.6,9981.7 h -675 c -73,0 -132.15,59.1 -132.15,132.1 v 478.1 c 0,73 59.15,132.1 132.15,132.1 h 675 c 73,0 132.2,-59.1 132.2,-132.1 v -478.1 c 0,-73 -59.2,-132.1 -132.2,-132.1" /><path
         id="path310"
         style="fill:#8754af;fill-opacity:1;fill-rule:nonzero;stroke:none"
         d="m 10754.6,8906.7 h -675 c -73,0 -132.15,59.2 -132.15,132.2 v 478 c 0,73 59.15,132.2 132.15,132.2 h 675 c 73,0 132.2,-59.2 132.2,-132.2 v -478 c 0,-73 -59.2,-132.2 -132.2,-132.2" /><path
         id="path312"
         style="fill:#f95f6a;fill-opacity:1;fill-rule:nonzero;stroke:none"
         d="m 10754.6,7831.8 h -675 c -73,0 -132.15,59.1 -132.15,132.1 v 1553 c 0,73 59.15,132.2 132.15,132.2 h 675 c 73,0 132.2,-59.2 132.2,-132.2 v -1553 c 0,-73 -59.2,-132.1 -132.2,-132.1" /><path
         id="path314"
         style="fill:none;stroke:#efeefe;stroke-width:105.50499725;stroke-linecap:round;stroke-linejoin:miter;stroke-miterlimit:10;stroke-dasharray:none;stroke-opacity:1"
         d="m 10117.7,8906.7 h 598.8" /><path
         id="path316"
         style="fill:none;stroke:#efeefe;stroke-width:105.50499725;stroke-linecap:round;stroke-linejoin:miter;stroke-miterlimit:10;stroke-dasharray:none;stroke-opacity:1"
         d="m 10117.7,8574.2 h 598.8" /><path
         id="path318"
         style="fill:#d3d5fc;fill-opacity:1;fill-rule:nonzero;stroke:none"
         d="m 10307.5,13635 c 7.8,8.8 11.7,21.4 11.7,37.8 v 86.2 c 0,15.6 -3.9,27.7 -11.7,36.3 -7.8,8.6 -18.6,12.9 -32.2,12.9 -14.1,0 -25,-4.3 -32.6,-12.9 -7.6,-8.6 -11.4,-20.9 -11.4,-36.9 v -85.6 c 0,-16.8 3.8,-29.5 11.4,-38.1 7.6,-8.6 18.5,-12.9 32.6,-12.9 13.6,0 24.4,4.4 32.2,13.2 z m -137.2,-66.8 c -24.6,26.4 -36.9,63.2 -36.9,110.5 v 73.3 c 0,47.2 12.3,84.1 36.9,110.4 24.7,26.4 59.6,39.6 105,39.6 45.3,0 80.3,-13.2 104.9,-39.6 24.6,-26.3 36.9,-63.6 36.9,-111.6 v -72.1 c 0,-47.7 -12.4,-84.6 -37.2,-110.8 -24.8,-26.2 -59.7,-39.3 -104.6,-39.3 -45.4,0 -80.3,13.2 -105,39.6 z m -286.57,562.7 c 7.81,8.8 11.72,21.4 11.72,37.8 v 86.2 c 0,15.6 -3.91,27.7 -11.72,36.3 -7.82,8.6 -18.56,12.9 -32.24,12.9 -14.07,0 -24.91,-4.3 -32.52,-12.9 -7.63,-8.6 -11.44,-20.9 -11.44,-36.9 v -85.6 c 0,-16.8 3.81,-29.5 11.44,-38.1 7.61,-8.6 18.45,-12.9 32.52,-12.9 13.68,0 24.42,4.4 32.24,13.2 z m 355.17,258.8 h 104.9 l -463,-852.3 h -104.92 z m -492.33,-325.6 c -24.62,26.3 -36.92,63.2 -36.92,110.5 v 73.2 c 0,47.3 12.3,84.1 36.92,110.5 24.62,26.4 59.59,39.6 104.92,39.6 45.32,0 80.3,-13.2 104.92,-39.6 24.62,-26.4 36.93,-63.6 36.93,-111.7 v -72 c 0,-47.7 -12.41,-84.6 -37.23,-110.8 -24.82,-26.2 -59.69,-39.3 -104.62,-39.3 -45.33,0 -80.3,13.2 -104.92,39.6" /><path
         id="path320"
         style="fill:#ce3a5e;fill-opacity:1;fill-rule:nonzero;stroke:none"
         d="m 11573.5,12915.6 -107.4,-37.5 c -139.2,-48.7 -212.6,-201.1 -163.9,-340.3 l 158,-451.6 611.5,213.8 -158,451.7 c -48.7,139.2 -201,212.6 -340.2,163.9" /><path
         id="path322"
         style="fill:#f95f6a;fill-opacity:1;fill-rule:nonzero;stroke:none"
         d="m 11576.7,12126.9 -155.5,444.5 c -48.7,139.2 24.7,291.5 163.9,340.2 l 50.6,17.7 c 119.8,11.8 236.5,-59 278,-177.6 l 158,-451.7 -495,-173.1" /><path
         id="path324"
         style="fill:#c5c2f9;fill-opacity:1;fill-rule:nonzero;stroke:none"
         d="m 11699,12556.4 -107.3,-37.5 c -139.2,-48.7 -212.6,-201 -163.9,-340.2 l 205.5,-587.5 611.4,213.8 -205.4,587.5 c -48.7,139.2 -201,212.6 -340.3,163.9" /><path
         id="path326"
         style="fill:#efeefe;fill-opacity:1;fill-rule:nonzero;stroke:none"
         d="m 12244.4,11804.9 -459.2,-160.6 c -96.6,271.9 -193.1,543.8 -289.7,815.7 v 0 c 3.3,3.2 6.7,6.2 10.1,9.2 0.1,0.1 0.2,0.2 0.4,0.3 3.3,2.8 6.7,5.6 10.1,8.3 0.3,0.2 0.6,0.4 0.8,0.6 3.3,2.5 6.7,5 10.1,7.4 0.5,0.3 0.9,0.6 1.4,1 3.2,2.2 6.5,4.3 9.9,6.4 0.6,0.4 1.3,0.9 2,1.3 3.2,1.9 6.4,3.8 9.6,5.6 0.9,0.5 1.8,1 2.8,1.5 3,1.7 6.2,3.3 9.4,4.8 1.1,0.6 2.1,1.1 3.2,1.7 3.2,1.5 6.4,2.9 9.7,4.3 1.1,0.4 2.2,1 3.4,1.4 4.3,1.8 8.8,3.5 13.3,5.1 v 0 l 107.3,37.5 c 0,0 0.1,0 0.1,0.1 4.2,1.4 8.5,2.8 12.8,4.1 1.5,0.4 3.1,0.8 4.6,1.2 2.8,0.8 5.5,1.6 8.3,2.2 1.8,0.5 3.6,0.8 5.4,1.2 2.5,0.6 5.1,1.1 7.6,1.6 1.9,0.4 3.8,0.7 5.7,1 2.4,0.4 4.8,0.8 7.2,1.1 2,0.3 4,0.5 6,0.7 2.4,0.3 4.7,0.6 7,0.8 2,0.2 4,0.3 6.1,0.4 2.3,0.2 4.6,0.4 6.9,0.4 2,0.1 4,0.1 6.1,0.2 2.2,0 4.5,0.1 6.7,0 2.1,0 4.2,-0.1 6.2,-0.1 2.2,-0.1 4.4,-0.2 6.6,-0.3 2.1,-0.1 4.2,-0.3 6.3,-0.5 2.1,-0.1 4.3,-0.3 6.4,-0.5 2.1,-0.2 4.2,-0.5 6.3,-0.8 2.1,-0.3 4.2,-0.5 6.3,-0.9 2.2,-0.3 4.2,-0.7 6.3,-1 2.1,-0.4 4.2,-0.8 6.2,-1.2 2.1,-0.4 4.2,-0.9 6.3,-1.4 2,-0.4 4,-0.9 6,-1.4 2.1,-0.5 4.2,-1.1 6.3,-1.7 2,-0.5 3.9,-1.1 5.9,-1.7 2.1,-0.6 4.2,-1.3 6.2,-2 1.9,-0.6 3.8,-1.2 5.7,-1.9 2.1,-0.8 4.2,-1.5 6.2,-2.3 1.9,-0.7 3.7,-1.5 5.5,-2.2 2.1,-0.9 4.2,-1.7 6.2,-2.6 1.8,-0.8 3.6,-1.6 5.3,-2.4 2.1,-1 4.1,-2 6.2,-3 1.7,-0.8 3.4,-1.7 5.1,-2.6 2,-1 4,-2.1 6.1,-3.2 1.6,-1 3.2,-1.9 4.8,-2.8 2,-1.2 4.1,-2.4 6,-3.6 1.6,-1 3.1,-2 4.7,-3 2,-1.3 4,-2.6 5.9,-3.9 1.5,-1.1 3,-2.1 4.4,-3.2 2,-1.4 4,-2.8 5.9,-4.3 1.4,-1 2.7,-2.1 4.1,-3.2 2,-1.5 3.9,-3.1 5.8,-4.6 1.3,-1.1 2.6,-2.3 3.9,-3.4 1.9,-1.6 3.8,-3.3 5.6,-5 1.3,-1.1 2.4,-2.3 3.6,-3.4 1.9,-1.8 3.8,-3.6 5.6,-5.5 1.1,-1.1 2.2,-2.2 3.2,-3.3 1.9,-2 3.8,-3.9 5.6,-6 0.9,-1 1.8,-2.1 2.8,-3.2 1.8,-2.2 3.7,-4.3 5.5,-6.5 0.8,-1 1.6,-2 2.3,-3 1.9,-2.4 3.8,-4.8 5.6,-7.2 0.6,-0.8 1.1,-1.7 1.7,-2.5 1.9,-2.7 3.9,-5.4 5.7,-8.1 0.2,-0.4 0.5,-0.8 0.7,-1.2 9.1,-13.9 17.1,-28.8 23.6,-44.7 l 210.3,-601.2" /><path
         id="path328"
         style="fill:#f89f4f;fill-opacity:1;fill-rule:nonzero;stroke:none"
         d="M 13679.8,7683.5 12172.3,12012 c -48.7,139.2 -201,212.6 -340.2,163.9 l -107.3,-37.5 c -139.2,-48.7 -212.6,-201.1 -163.9,-340.3 l 1508.5,-4331.6 610.4,217" /><path
         id="path330"
         style="fill:#fdc854;fill-opacity:1;fill-rule:nonzero;stroke:none"
         d="m 13681.4,7678.9 -1508.9,4332.5 c -48.8,139.5 -201.2,213.2 -340.4,164.5 l -107.3,-37.5 c -38.5,-13.5 -71.9,-34.9 -99.1,-61.7 224.7,-632.7 1374,-3927.6 1598.7,-4560.3 l 457,162.5" /><path
         id="path332"
         style="fill:#f26d6d;fill-opacity:1;fill-rule:nonzero;stroke:none"
         d="m 13522,7019.6 -452.5,446.2 c 25.2,37.7 111.9,157.1 278.3,212.2 156.2,51.8 288.6,15.8 333.2,1.6 -25.3,-210.3 -50.6,-420.6 -75.9,-630.9 -4.8,-40.5 -54.1,-57.7 -83.1,-29.1" /><path
         id="path334"
         style="fill:#fb9c98;fill-opacity:1;fill-rule:nonzero;stroke:none"
         d="m 13681,7679.6 c -23.9,-198.4 -47.7,-396.7 -71.6,-595.1 -34.2,26.3 -68.5,52.5 -102.7,78.8 -96.2,150.4 -192.4,300.7 -288.5,451.1 48.6,32 159.2,94.6 307.5,92 62.6,-1.1 115.4,-13.5 155.3,-26.8" /><path
         id="path336"
         style="fill:#191245;fill-opacity:1;fill-rule:nonzero;stroke:none"
         d="m 13532.2,7007.1 -161.2,159 c 16.8,19.4 59.6,63.7 130.7,84.8 56.8,16.9 105.3,11.2 130.3,6.4 -9,-74.9 -18,-149.8 -27,-224.7 -4.3,-35.4 -47.4,-50.5 -72.8,-25.5" /><g
         transform="scale(1.15852)"
         id="g338"><path
           id="path340"
           style="fill:#fb9c98;fill-opacity:1;fill-rule:nonzero;stroke:none"
           d="m 5850.72,16300 v -1020.6 c 281.83,0 510.3,228.5 510.3,510.3 0,281.8 -228.47,510.3 -510.3,510.3" /></g><g
         transform="scale(1.1585)"
         id="g342"><path
           id="path344"
           style="fill:#f26d6d;fill-opacity:1;fill-rule:nonzero;stroke:none"
           d="m 5850.78,16300 v -532.4 h 64.1 v 463.8 c 0,36.4 -28.3,66.1 -64.1,68.6" /></g><path
         id="path346"
         style="fill:#f26d6d;fill-opacity:1;fill-rule:nonzero;stroke:none"
         d="m 7454.86,15118.5 h -594.17 v 594.1 h 594.17 v -594.1" /><g
         transform="scale(1.12775)"
         id="g348"><path
           id="path350"
           style="fill:#fb9c98;fill-opacity:1;fill-rule:nonzero;stroke:none"
           d="M 7539.96,13829.5 H 6503.4 c -682.21,0 -1235.24,553.1 -1235.24,1235.3 v 0 c 0,682.2 553.03,1235.2 1235.24,1235.2 h 1036.56 c 682.22,0 1235.25,-553 1235.25,-1235.2 v 0 c 0,-682.2 -553.03,-1235.3 -1235.25,-1235.3" /></g><g
         transform="scale(1.06648)"
         id="g352"><path
           id="path354"
           style="fill:#fb9c98;fill-opacity:1;fill-rule:nonzero;stroke:none"
           d="m 5140.42,16300 h 521.96 v -755.7 h -400.46 l -121.5,755.7" /></g><g
         transform="scale(1.06648)"
         id="g356"><path
           id="path358"
           style="fill:#ffc5c5;fill-opacity:1;fill-rule:nonzero;stroke:none"
           d="m 5328.86,15637 -95.85,596.1 c -5.68,35.4 -33.54,61.7 -67.11,66.9 h -25.48 v 0 l 121.5,-755.7 c 44.06,7.2 74.03,48.6 66.94,92.7" /></g><g
         transform="scale(1.05472)"
         id="g360"><path
           id="path362"
           style="fill:#fb9c98;fill-opacity:1;fill-rule:nonzero;stroke:none"
           d="m 5227.02,16300 15.1,-94 c 25.82,0.1 46.69,21.2 46.69,47 0,26 -21.03,47 -46.97,47 h -14.82" /></g><g
         transform="scale(1.01704)"
         id="g364"><path
           id="path366"
           style="fill:#f26d6d;fill-opacity:1;fill-rule:nonzero;stroke:none"
           d="m 5993.47,16077.3 c 94.74,29.7 163.48,118.2 163.48,222.7 h -254.53 c 23.9,-77.4 54.48,-151.8 91.05,-222.7" /></g><path
         id="path368"
         style="fill:#f26d6d;fill-opacity:1;fill-rule:nonzero;stroke:none"
         d="m 6528.34,15853 c 227.49,-161.7 505.6,-256.7 805.9,-256.7 h 1168.99 c 296.48,0 571.28,92.7 797.14,250.6 -920.01,-122.6 -1852.43,-120.6 -2772.03,6.1" /><path
         id="path370"
         style="fill:#fb9c98;fill-opacity:1;fill-rule:nonzero;stroke:none"
         d="m 7071.22,15189 h -114.1 c -38.98,0 -70.58,-31.6 -70.58,-70.5 h 255.25 c 0,38.9 -31.59,70.5 -70.57,70.5" /><path
         id="path372"
         style="fill:#fb9c98;fill-opacity:1;fill-rule:nonzero;stroke:none"
         d="m 7349.82,15189 h -114.1 c -38.98,0 -70.57,-31.6 -70.57,-70.5 h 255.24 c 0,38.9 -31.59,70.5 -70.57,70.5" /><path
         id="path374"
         style="fill:#f26d6d;fill-opacity:1;fill-rule:nonzero;stroke:none"
         d="m 9115.66,15118.5 h -594.17 v 594.1 l 594.17,57.5 v -651.6" /><path
         id="path376"
         style="fill:#fb9c98;fill-opacity:1;fill-rule:nonzero;stroke:none"
         d="m 8732.02,15189 h -114.1 c -38.98,0 -70.58,-31.6 -70.58,-70.5 h 255.25 c 0,38.9 -31.59,70.5 -70.57,70.5" /><path
         id="path378"
         style="fill:#fb9c98;fill-opacity:1;fill-rule:nonzero;stroke:none"
         d="m 9010.62,15189 h -114.1 c -38.98,0 -70.57,-31.6 -70.57,-70.5 h 255.24 c 0,38.9 -31.59,70.5 -70.57,70.5" /><g
         transform="scale(1.07842)"
         id="g380"><path
           id="path382"
           style="fill:none;stroke:#fb9c98;stroke-width:75.90699768;stroke-linecap:butt;stroke-linejoin:miter;stroke-miterlimit:10;stroke-dasharray:none;stroke-opacity:1"
           d="m 9320.51,16023 v 84.2 c 0,106.5 86.33,192.8 192.78,192.8 v 0 c 106.46,0 192.7,-86.3 192.7,-192.8 v 0 c 0,-199.4 -161.63,-361.2 -361.18,-361.2 h -24.3 -247.7" /></g><g
         transform="scale(1.11902)"
         id="g384"><path
           id="path386"
           style="fill:none;stroke:#f26d6d;stroke-width:73.1529007;stroke-linecap:round;stroke-linejoin:miter;stroke-miterlimit:10;stroke-dasharray:none;stroke-opacity:1"
           d="m 7461.52,16272.6 c -99.39,15.7 -217.47,27.4 -350.36,26.9 -140.43,-0.6 -264.44,-14.6 -367.7,-32.7" /></g><g
         transform="scale(1.28714)"
         id="g388"><path
           id="path390"
           style="fill:#fdc854;fill-opacity:1;fill-rule:nonzero;stroke:none"
           d="m 6588.29,15587.9 c 95.1,245.7 -26.97,521.9 -272.63,617 -245.65,95.1 -521.89,-27 -616.98,-272.6 -95.09,-245.7 26.96,-521.9 272.63,-617 245.66,-95.1 521.9,27 616.98,272.6" /></g><g
         transform="scale(1.27866)"
         id="g392"><path
           id="path394"
           style="fill:#f89f4f;fill-opacity:1;fill-rule:nonzero;stroke:none"
           d="m 6542.91,15725.8 c 76.68,198.1 -21.74,420.8 -219.83,497.5 -198.08,76.7 -420.83,-21.7 -497.5,-219.8 -76.68,-198.1 21.74,-420.8 219.83,-497.5 198.08,-76.7 420.82,21.8 497.5,219.8" /></g><g
         transform="scale(1.08802)"
         id="g396"><path
           id="path398"
           style="fill:#f26d6d;fill-opacity:1;fill-rule:nonzero;stroke:none"
           d="m 7420.18,14849 c -46.51,-17.5 -98.61,-26.4 -155.21,-26.2 -127.38,0.7 -221.28,31.7 -287.09,94.9 -56.9,54.7 -89.78,131.1 -100.52,233.9 l 147.03,15.3 c 12.59,-120.5 57.34,-195.4 241.32,-196.3 210.5,-1 234.2,165.8 234.59,237.6 0.6,105 -17.28,205.1 -239.43,275.7 l -1.73,0.7 -37.6,12.9 c -133.13,42.7 -224.32,102 -278.74,181.1 -56.19,81.6 -62.89,169.3 -62.45,236.6 0.68,104.8 34.47,199.8 95.12,267.5 68.95,77 168.69,117.3 288.44,116.5 126.02,-0.9 218.48,-34.9 282.67,-104 62.03,-66.9 84.52,-155.3 97.17,-224.9 l -145.43,-26.5 c -24.88,136.8 -68.12,206.5 -235.38,207.6 -210.5,1.4 -234.3,-165.4 -234.77,-237.1 -0.69,-105.1 17.1,-205.2 239.21,-276.2 l 1.62,-0.6 37.55,-12.9 c 133.16,-42.5 224.38,-101.6 278.9,-180.6 56.26,-81.7 63.04,-169.3 62.68,-236.6 -0.59,-104.8 -34.27,-199.8 -94.85,-267.7 -36.33,-40.6 -81.22,-71 -133.1,-90.7" /></g><path
         id="path400"
         style="fill:#f26d6d;fill-opacity:1;fill-rule:nonzero;stroke:none"
         d="m 8014.36,16037.7 -160.83,0.8 0.91,170.4 160.82,-0.9 -0.9,-170.3" /><g
         transform="scale(1.09376)"
         id="g402"><path
           id="path404"
           style="fill:#f26d6d;fill-opacity:1;fill-rule:nonzero;stroke:none"
           d="m 7326.92,16143.5 -147.03,0.8 0.82,155.7 147.04,-0.7 -0.83,-155.8" /></g><path
         id="path406"
         style="fill:#9087f4;fill-opacity:1;fill-rule:nonzero;stroke:none"
         d="m 7953.01,4304.5 h -198.9 v -261.2 h 198.9 c 74.38,0 124.54,57.1 124.54,126.2 0,72.7 -55.35,135 -124.54,135 z M 7980.68,3808 H 7754.11 V 3481.1 H 7508.5 v 1058.6 h 472.18 c 198.92,0 333.83,-178.2 333.83,-359.8 0,-188.5 -143.57,-371.9 -333.83,-371.9" /><path
         id="path408"
         style="fill:#9087f4;fill-opacity:1;fill-rule:nonzero;stroke:none"
         d="m 9213.92,4131.5 v -209.3 h -406.46 v -205.8 h 515.43 v -235.3 h -761.04 v 1058.6 h 761.04 v -235.2 h -515.43 v -173 h 406.46" /><path
         id="path410"
         style="fill:#9087f4;fill-opacity:1;fill-rule:nonzero;stroke:none"
         d="m 10026.9,4332.1 h -195.49 v -250.8 h 195.49 c 74.3,0 122.8,53.6 122.8,122.8 0,70.9 -53.7,128 -122.8,128 z m 188.5,-411.6 249.1,-439.4 h -285.4 l -207.6,396.1 h -140.09 v -396.1 h -245.6 v 1058.6 h 473.89 c 192,0 330.4,-140.1 330.4,-326.9 0,-124.6 -62.3,-242.2 -174.7,-292.3" /><path
         id="path412"
         style="fill:#9087f4;fill-opacity:1;fill-rule:nonzero;stroke:none"
         d="m 11024.8,3463.9 c -108.9,0 -283.6,34.5 -380.5,108.9 l 96.9,219.7 c 53.6,-36.3 207.5,-96.9 285.4,-96.9 58.8,0 145.3,34.6 145.3,102.1 0,153.9 -460.1,110.7 -460.1,453.1 0,212.8 176.4,304.4 382.2,304.4 109,0 250.8,-25.9 332.1,-102 l -79.5,-183.3 c -48.5,41.5 -160.9,69.2 -224.9,69.2 -60.5,0 -155.7,-22.5 -155.7,-95.2 0,-159.1 472.2,-89.9 472.2,-423.8 0,-212.7 -190.2,-356.2 -413.4,-356.2" /><path
         id="path414"
         style="fill:#9087f4;fill-opacity:1;fill-rule:nonzero;stroke:none"
         d="m 11887.9,4005.2 c 0,-145.3 48.5,-326.9 233.5,-326.9 185.1,0 228.3,179.9 228.3,323.5 0,155.6 -51.8,337.3 -230,337.3 -178.1,0 -231.8,-181.7 -231.8,-333.9 z m 729.9,1.8 c 0,-301 -179.8,-543.1 -498.1,-543.1 -318.2,0 -501.6,242.1 -501.6,541.3 0,304.4 188.5,551.8 503.3,551.8 313.1,0 496.4,-245.6 496.4,-550" /><path
         id="path416"
         style="fill:#9087f4;fill-opacity:1;fill-rule:nonzero;stroke:none"
         d="m 13475.7,3923.9 v 615.8 h 247.4 V 3481.1 H 13474 l -363.2,600.2 v -600.2 h -245.6 v 1058.6 h 247.3 l 363.2,-615.8" /><path
         id="path418"
         style="fill:#9087f4;fill-opacity:1;fill-rule:nonzero;stroke:none"
         d="m 14321.5,3937.8 h 214.5 l -107.2,371.8 z m 280.2,601.9 314.8,-1058.6 h -247.3 l -76.1,235.3 h -328.6 l -76.1,-235.3 H 13941 l 313.1,1058.6 h 347.6" /><path
         id="path420"
         style="fill:#9087f4;fill-opacity:1;fill-rule:nonzero;stroke:none"
         d="m 15694.9,3716.4 v -235.3 h -560.4 v 1058.6 h 247.3 v -823.3 h 313.1" /><g
         transform="scale(1.05604)"
         id="g422"><path
           id="path424"
           style="fill:#9087f4;fill-opacity:1;fill-rule:nonzero;stroke:none"
           d="M 15941.3,3725.51 H 15753 v -245.63 h 188.3 c 65.5,0 117.9,57.29 117.9,126.03 0,65.53 -49.1,119.6 -117.9,119.6 z m -57.3,393.07 h -131 v -201.41 h 122.8 c 68.8,0 122.8,26.23 122.8,99.9 0,72.06 -52.4,101.51 -114.6,101.51 z m 260.4,-278.39 c 103.2,-37.69 155.6,-129.45 155.6,-248.95 0,-217.89 -175.3,-294.88 -376.7,-294.88 h -402.9 v 1002.42 h 386.5 c 170.4,0 311.2,-96.68 311.2,-266.94 0,-76.98 -29.5,-142.51 -73.7,-191.65" /></g><g
         transform="scale(1.12162)"
         id="g426"><path
           id="path428"
           style="fill:#9087f4;fill-opacity:1;fill-rule:nonzero;stroke:none"
           d="m 15558.2,3475.33 v 572.12 h 214.4 v -572.12 c 0,-97.18 54,-178.85 157.3,-178.85 103.3,0 155.8,83.28 155.8,178.85 v 572.12 h 214.3 v -572.12 c 0,-229.76 -134.2,-387.03 -374.7,-387.03 -235.9,0 -367.1,152.64 -367.1,387.03" /></g><g
         transform="scale(1.19102)"
         id="g430"><path
           id="path432"
           style="fill:#9087f4;fill-opacity:1;fill-rule:nonzero;stroke:none"
           d="m 15845.4,3614.13 h -75.5 v -493.78 h 75.5 c 152.5,0 229.5,108.9 229.5,254.16 0,152.47 -74.1,239.62 -229.5,239.62 z m 13.1,-691.34 h -296.3 v 888.82 h 296.3 c 281.7,0 441.5,-152.47 441.5,-437.1 0,-262.89 -177.2,-451.72 -441.5,-451.72" /></g><g
         transform="scale(1.26137)"
         id="g434"><path
           id="path436"
           style="fill:#9087f4;fill-opacity:1;fill-rule:nonzero;stroke:none"
           d="m 16105.3,2951.8 v 250.91 h 193.4 v -360.64 c -6.9,-9.59 -27.5,-21.88 -37.1,-27.43 -76.8,-43.84 -168.6,-68.5 -256.4,-68.5 -255.1,0 -430.6,178.23 -430.6,433.27 0,248.22 181.1,433.33 430.6,433.33 93.3,0 223.5,-26.08 294.8,-91.88 l -78.2,-164.58 c -41.1,38.45 -120.6,67.23 -176.8,67.23 -138.5,0 -256.4,-101.48 -256.4,-244.1 0,-163.16 100,-244.11 259.1,-244.11 19.2,0 41.2,4.13 57.6,16.5" /></g><g
         transform="scale(1.32249)"
         id="g438"><path
           id="path440"
           style="fill:#9087f4;fill-opacity:1;fill-rule:nonzero;stroke:none"
           d="m 16217.6,3124.03 v -158.26 h -307.3 v -155.62 h 389.7 v -177.92 h -575.4 v 800.46 h 575.4 v -177.85 h -389.7 v -130.81 h 307.3" /></g><g
         transform="scale(1.38945)"
         id="g442"><path
           id="path444"
           style="fill:#9087f4;fill-opacity:1;fill-rule:nonzero;stroke:none"
           d="m 15671.3,3102.96 v 164.31 h 628.7 v -164.31 h -225.3 v -597.58 h -176.8 v 597.58 h -226.6" /></g></g></g></svg>